<svg width="400" height="400" viewBox="0 0 400 400" fill="none" xmlns="http://www.w3.org/2000/svg">
<path d="M193.269 84.5183C195.171 77.852 204.501 77.7478 206.635 84.2058L206.731 84.5183L223.106 141.895C224.99 148.495 231.663 152.467 238.323 151.04L295.804 153.174L296.23 153.189L296.644 153.085C303.368 151.399 308.122 159.425 303.599 164.503L262.426 190.508L262.124 190.7L261.874 190.958C257.07 195.919 256.995 203.752 261.648 208.803L261.874 209.043L303.375 251.912C308.197 256.892 303.623 265.023 296.963 263.643L296.644 263.57L238.767 249.063C232.064 247.383 225.239 251.24 223.196 257.802C223.163 257.867 223.123 257.945 223.078 258.035C222.919 258.345 222.685 258.802 222.388 259.385C221.794 260.553 220.942 262.231 219.911 264.274C217.849 268.36 215.069 273.911 212.203 279.767C209.338 285.62 206.377 291.793 203.957 297.119C201.57 302.369 199.609 307.006 198.847 309.676C196.915 316.448 187.318 316.448 185.385 309.676C184.07 305.069 181.976 292.41 180.185 280.635C179.298 274.806 178.497 269.277 177.917 265.204C177.628 263.168 177.394 261.496 177.232 260.334C177.151 259.753 177.089 259.3 177.046 258.992C177.025 258.838 177.008 258.719 176.998 258.64C176.992 258.601 176.989 258.571 176.986 258.551C176.984 258.542 176.984 258.534 176.983 258.529C176.983 258.527 176.982 258.524 176.982 258.523V258.522L176.953 258.31L176.894 258.105L176.8 257.791C174.799 251.383 168.237 247.56 161.687 248.958L111.627 246.828L111.193 246.809L110.771 246.915C104.002 248.611 99.2297 240.467 103.909 235.396L137.8 209.334L137.974 209.2L138.126 209.043C142.96 204.05 143.005 196.152 138.265 191.104L104.276 146.217L104.166 146.071L104.04 145.94L103.817 145.701C99.3096 140.644 104.008 132.661 110.69 134.263L161.022 150.876L161.125 150.911L161.233 150.937C167.932 152.616 174.752 148.765 176.8 142.209L176.894 141.895L193.269 84.5183Z" stroke="white" stroke-width="6"/>
<path d="M250.463 112.375C257.812 105.505 269.564 112.566 266.948 122.28L249.546 164.953C248.187 170.001 250.945 175.212 255.813 176.961L256.29 177.12L306.715 192.467C316.339 195.396 316.1 209.104 306.379 211.696L255.45 225.274L254.967 225.415C250.041 226.994 247.102 232.106 248.285 237.198L253.185 289.961C255.424 299.608 243.839 306.2 236.7 299.609C229.56 293.019 243.207 306.183 236.364 299.285C221.827 284.712 206.162 260.548 206.162 260.548C202.351 256.727 196.195 256.619 192.253 260.305L151.692 290.846L151.344 291.158C144.095 297.394 132.991 290.722 135.094 281.394L135.207 280.94L150.97 235.5C152.374 230.289 149.389 224.904 144.226 223.333L95.9232 201.022L95.479 200.877C86.4535 197.718 86.6799 184.764 95.8102 181.922L96.2589 181.792L145.066 175.178C150.118 173.832 153.252 168.837 152.333 163.747L152.231 163.254L140.31 111.912C138.035 102.112 150.026 95.4649 157.131 102.588L194.354 139.905C198.047 143.606 203.939 143.823 207.888 140.482L208.263 140.148L250.463 112.375ZM261.154 120.721C262.201 116.835 257.499 114.01 254.56 116.758L212.36 144.531C206.151 150.335 196.511 150.259 190.395 144.424L190.106 144.142L152.882 106.825C150.04 103.976 145.244 106.635 146.154 110.554L158.075 161.897L158.162 162.291C159.843 170.439 154.983 178.526 147 180.867L146.612 180.976L97.804 187.589C93.9158 188.626 93.8203 194.109 97.67 195.281L145.973 217.593C154.233 220.107 159.008 228.722 156.763 237.06L141 282.5C139.954 286.386 144.655 289.211 147.594 286.462L188.155 255.922C194.463 250.025 204.311 250.197 210.409 256.31C210.409 256.31 237.77 292.199 240.612 295.048C243.454 297.897 248.25 295.238 247.34 291.318C246.43 287.398 242.44 238.555 242.44 238.555C240.487 230.144 245.561 221.701 253.904 219.477L304.834 205.899C308.722 204.862 308.817 199.379 304.968 198.207L254.543 182.86C246.282 180.346 241.507 171.73 243.752 163.393L261.154 120.721Z" fill="white" fill-opacity="0.7"/>
<path d="M188.657 166.008C190.311 157.443 202.153 156.407 205.269 164.554C208.097 171.95 216.283 175.767 223.766 173.18C232.011 170.33 238.829 180.067 233.331 186.84C228.34 192.987 229.128 201.985 235.11 207.172C241.701 212.887 236.677 223.661 228.062 222.286C220.244 221.037 212.845 226.218 211.344 233.992C209.69 242.557 197.848 243.593 194.732 235.446C191.948 228.166 183.972 224.353 176.585 226.704L176.234 226.82C167.989 229.67 161.171 219.933 166.669 213.16C171.659 207.013 170.872 198.015 164.89 192.828C158.3 187.113 163.324 176.339 171.938 177.715C179.756 178.963 187.156 173.782 188.657 166.008Z" fill="white" stroke="white" stroke-width="6"/>
</svg>